<svg width="10" height="11" viewBox="0 0 10 11" fill="none" xmlns="http://www.w3.org/2000/svg">
<path d="M3.43901 9.75986L8.49838 6.03232C8.52367 6.01369 8.52349 5.9953 8.54897 5.99505C8.70075 5.88322 8.8267 5.73487 8.92716 5.58676C8.92698 5.56837 8.92698 5.56837 8.9268 5.54999C9.0018 5.40213 9.02584 5.25477 9.04988 5.10741C9.04934 5.05224 9.04898 5.01547 9.04844 4.9603C9.04736 4.84997 8.99515 4.72175 8.94312 4.61191C8.9171 4.55699 8.89127 4.52046 8.86543 4.48394C8.76209 4.33782 8.65874 4.19171 8.47933 4.08312L3.3481 0.455158C2.60407 -0.0708965 1.3812 -0.0589476 0.64759 0.481545C-0.0860176 1.02204 -0.0773929 1.9047 0.666636 2.43075L3.36893 4.19913L4.69416 5.0641L3.27628 6.08335L0.719462 7.83704C0.340009 8.11661 0.165087 8.46773 0.168501 8.81712C0.171915 9.16651 0.353665 9.51415 0.738508 9.78625C1.48254 10.3123 2.70541 10.3004 3.43901 9.75986Z" fill="#4288F0"/>
</svg>
