<svg width="57" height="57" viewBox="0 0 57 57" fill="none" xmlns="http://www.w3.org/2000/svg">
<path opacity="0.4" d="M38.4514 4.75H18.5489C9.90389 4.75 4.75014 9.90375 4.75014 18.5488V38.4275C4.75014 47.0963 9.90389 52.25 18.5489 52.25H38.4277C47.0727 52.25 52.2264 47.0963 52.2264 38.4513V18.5488C52.2501 9.90375 47.0964 4.75 38.4514 4.75Z" fill="#4288F0"/>
<path d="M36.8105 24.0587C39.2765 24.0587 41.2755 22.0597 41.2755 19.5937C41.2755 17.1278 39.2765 15.1287 36.8105 15.1287C34.3445 15.1287 32.3455 17.1278 32.3455 19.5937C32.3455 22.0597 34.3445 24.0587 36.8105 24.0587Z" fill="#4288F0"/>
<path d="M20.1856 24.0587C22.6516 24.0587 24.6506 22.0597 24.6506 19.5937C24.6506 17.1278 22.6516 15.1287 20.1856 15.1287C17.7197 15.1287 15.7206 17.1278 15.7206 19.5937C15.7206 22.0597 17.7197 24.0587 20.1856 24.0587Z" fill="#4288F0"/>
<path d="M37.0521 30.685H19.9521C18.2896 30.685 16.9359 32.0387 16.9359 33.725C16.9359 40.1137 22.1371 45.315 28.5259 45.315C34.9146 45.315 40.1159 40.1137 40.1159 33.725C40.0921 32.0625 38.7146 30.685 37.0521 30.685Z" fill="#4288F0"/>
</svg>
