<svg width="189" height="164" viewBox="0 0 189 164" fill="none" xmlns="http://www.w3.org/2000/svg">
<rect x="0.5" y="0.5" width="188" height="163" rx="17.5" stroke="#43A2F9"/>
<path d="M110.5 40.3057C112.37 39.3157 114.185 38.4632 115.89 37.7757C117.513 37.1707 119.08 37.6107 120.07 38.6282C121.115 39.6732 121.61 41.2407 120.95 42.8632C116.715 53.4232 106.1 67.7782 97.2176 74.9007L91.8001 79.2457C91.1126 79.7407 90.4251 80.1807 89.6551 80.4832C89.6551 79.9882 89.6276 79.4382 89.5451 78.9157C89.2426 76.6057 88.1976 74.4607 86.3551 72.6182C84.4851 70.7482 82.2026 69.6482 79.8651 69.3457C79.3151 69.3182 78.7651 69.2632 78.2151 69.3182C78.5176 68.4657 78.9851 67.6682 79.5626 67.0082L83.8526 61.5907C87.8401 56.6132 94.1101 51.0857 100.683 46.4382" stroke="#43A3F9" stroke-width="4.125" stroke-linecap="round" stroke-linejoin="round"/>
<path d="M89.6824 80.4547C89.6824 83.4797 88.5274 86.3672 86.3549 88.5672C84.6774 90.2447 82.3949 91.3997 79.6724 91.7572L72.9074 92.4997C69.2224 92.9122 66.0599 89.7772 66.4999 86.0372L67.2424 79.2722C67.9024 73.2497 72.9349 69.3997 78.2699 69.2897C78.8199 69.2622 79.3974 69.2897 79.9199 69.3172C82.2574 69.6197 84.5399 70.6922 86.4099 72.5897C88.2524 74.4322 89.2974 76.5772 89.5999 78.8872C89.6274 79.4097 89.6824 79.9322 89.6824 80.4547Z" stroke="#43A3F9" stroke-width="4.125" stroke-linecap="round" stroke-linejoin="round"/>
<path d="M100.16 71.7927C100.16 64.6152 94.33 58.7852 87.1525 58.7852" stroke="#43A3F9" stroke-width="4.125" stroke-linecap="round" stroke-linejoin="round"/>
<path d="M116.33 67.008L118.365 69.0155C122.462 73.113 122.462 77.1555 118.365 81.253L110.225 89.393C106.182 93.4355 102.085 93.4355 98.0425 89.393" stroke="#43A3F9" stroke-width="4.125" stroke-linecap="round"/>
<path d="M69.5524 60.9028C65.5099 56.8053 65.5099 52.7628 69.5524 48.6653L77.6924 40.5253C81.7349 36.4828 85.8324 36.4828 89.8749 40.5253L91.9099 42.5603" stroke="#43A3F9" stroke-width="4.125" stroke-linecap="round"/>
<path d="M91.9376 42.5877L81.7626 52.7627" stroke="#43A3F9" stroke-width="4.125" stroke-linecap="round"/>
<path d="M116.33 67.008L108.19 75.1205" stroke="#43A3F9" stroke-width="4.125" stroke-linecap="round"/>
<path d="M62.736 129.192C61.8507 129.192 61.0347 129.053 60.288 128.776C59.552 128.488 58.9067 128.083 58.352 127.56C57.808 127.037 57.3813 126.424 57.072 125.72C56.7733 125.016 56.624 124.243 56.624 123.4C56.624 122.557 56.7733 121.784 57.072 121.08C57.3813 120.376 57.8133 119.763 58.368 119.24C58.9227 118.717 59.5733 118.317 60.32 118.04C61.0667 117.752 61.888 117.608 62.784 117.608C63.776 117.608 64.6667 117.773 65.456 118.104C66.256 118.435 66.928 118.915 67.472 119.544L65.808 121.08C65.4027 120.653 64.96 120.339 64.48 120.136C64 119.923 63.4773 119.816 62.912 119.816C62.368 119.816 61.872 119.901 61.424 120.072C60.976 120.243 60.5867 120.488 60.256 120.808C59.936 121.128 59.6853 121.507 59.504 121.944C59.3333 122.381 59.248 122.867 59.248 123.4C59.248 123.923 59.3333 124.403 59.504 124.84C59.6853 125.277 59.936 125.661 60.256 125.992C60.5867 126.312 60.9707 126.557 61.408 126.728C61.856 126.899 62.3467 126.984 62.88 126.984C63.392 126.984 63.888 126.904 64.368 126.744C64.8587 126.573 65.3333 126.291 65.792 125.896L67.264 127.768C66.656 128.227 65.9467 128.579 65.136 128.824C64.336 129.069 63.536 129.192 62.736 129.192ZM64.896 127.432V123.224H67.264V127.768L64.896 127.432ZM73.7678 129.128C72.7864 129.128 71.9224 128.936 71.1758 128.552C70.4398 128.168 69.8691 127.645 69.4638 126.984C69.0584 126.312 68.8558 125.549 68.8558 124.696C68.8558 123.832 69.0531 123.069 69.4478 122.408C69.8531 121.736 70.4024 121.213 71.0958 120.84C71.7891 120.456 72.5731 120.264 73.4478 120.264C74.2904 120.264 75.0478 120.445 75.7198 120.808C76.4024 121.16 76.9411 121.672 77.3358 122.344C77.7304 123.005 77.9278 123.8 77.9278 124.728C77.9278 124.824 77.9224 124.936 77.9118 125.064C77.9011 125.181 77.8904 125.293 77.8798 125.4H70.8878V123.944H76.5677L75.6078 124.376C75.6078 123.928 75.5171 123.539 75.3358 123.208C75.1544 122.877 74.9038 122.621 74.5838 122.44C74.2638 122.248 73.8904 122.152 73.4638 122.152C73.0371 122.152 72.6584 122.248 72.3278 122.44C72.0078 122.621 71.7571 122.883 71.5758 123.224C71.3944 123.555 71.3038 123.949 71.3038 124.408V124.792C71.3038 125.261 71.4051 125.677 71.6078 126.04C71.8211 126.392 72.1144 126.664 72.4878 126.856C72.8718 127.037 73.3198 127.128 73.8318 127.128C74.2904 127.128 74.6904 127.059 75.0318 126.92C75.3838 126.781 75.7038 126.573 75.9918 126.296L77.3198 127.736C76.9251 128.184 76.4291 128.531 75.8318 128.776C75.2344 129.011 74.5464 129.128 73.7678 129.128ZM84.8215 120.264C85.5042 120.264 86.1122 120.403 86.6455 120.68C87.1895 120.947 87.6162 121.363 87.9255 121.928C88.2348 122.483 88.3895 123.197 88.3895 124.072V129H85.8935V124.456C85.8935 123.763 85.7388 123.251 85.4295 122.92C85.1308 122.589 84.7042 122.424 84.1495 122.424C83.7548 122.424 83.3975 122.509 83.0775 122.68C82.7682 122.84 82.5228 123.091 82.3415 123.432C82.1708 123.773 82.0855 124.211 82.0855 124.744V129H79.5895V120.392H81.9735V122.776L81.5255 122.056C81.8348 121.48 82.2775 121.037 82.8535 120.728C83.4295 120.419 84.0855 120.264 84.8215 120.264ZM94.9865 129.128C94.0052 129.128 93.1412 128.936 92.3945 128.552C91.6585 128.168 91.0878 127.645 90.6825 126.984C90.2772 126.312 90.0745 125.549 90.0745 124.696C90.0745 123.832 90.2718 123.069 90.6665 122.408C91.0718 121.736 91.6212 121.213 92.3145 120.84C93.0078 120.456 93.7918 120.264 94.6665 120.264C95.5092 120.264 96.2665 120.445 96.9385 120.808C97.6212 121.16 98.1598 121.672 98.5545 122.344C98.9492 123.005 99.1465 123.8 99.1465 124.728C99.1465 124.824 99.1412 124.936 99.1305 125.064C99.1198 125.181 99.1092 125.293 99.0985 125.4H92.1065V123.944H97.7865L96.8265 124.376C96.8265 123.928 96.7358 123.539 96.5545 123.208C96.3732 122.877 96.1225 122.621 95.8025 122.44C95.4825 122.248 95.1092 122.152 94.6825 122.152C94.2558 122.152 93.8772 122.248 93.5465 122.44C93.2265 122.621 92.9758 122.883 92.7945 123.224C92.6132 123.555 92.5225 123.949 92.5225 124.408V124.792C92.5225 125.261 92.6238 125.677 92.8265 126.04C93.0398 126.392 93.3332 126.664 93.7065 126.856C94.0905 127.037 94.5385 127.128 95.0505 127.128C95.5092 127.128 95.9092 127.059 96.2505 126.92C96.6025 126.781 96.9225 126.573 97.2105 126.296L98.5385 127.736C98.1438 128.184 97.6478 128.531 97.0505 128.776C96.4532 129.011 95.7652 129.128 94.9865 129.128ZM100.808 129V120.392H103.192V122.824L102.856 122.12C103.112 121.512 103.523 121.053 104.088 120.744C104.654 120.424 105.342 120.264 106.152 120.264V122.568C106.046 122.557 105.95 122.552 105.864 122.552C105.779 122.541 105.688 122.536 105.592 122.536C104.91 122.536 104.355 122.733 103.928 123.128C103.512 123.512 103.304 124.115 103.304 124.936V129H100.808ZM112.354 129V127.32L112.194 126.952V123.944C112.194 123.411 112.029 122.995 111.698 122.696C111.378 122.397 110.882 122.248 110.21 122.248C109.751 122.248 109.298 122.323 108.85 122.472C108.413 122.611 108.039 122.803 107.73 123.048L106.834 121.304C107.303 120.973 107.869 120.717 108.53 120.536C109.191 120.355 109.863 120.264 110.546 120.264C111.858 120.264 112.877 120.573 113.602 121.192C114.327 121.811 114.69 122.776 114.69 124.088V129H112.354ZM109.73 129.128C109.058 129.128 108.482 129.016 108.002 128.792C107.522 128.557 107.154 128.243 106.898 127.848C106.642 127.453 106.514 127.011 106.514 126.52C106.514 126.008 106.637 125.56 106.882 125.176C107.138 124.792 107.538 124.493 108.082 124.28C108.626 124.056 109.335 123.944 110.21 123.944H112.498V125.4H110.482C109.895 125.4 109.49 125.496 109.266 125.688C109.053 125.88 108.946 126.12 108.946 126.408C108.946 126.728 109.069 126.984 109.314 127.176C109.57 127.357 109.917 127.448 110.354 127.448C110.77 127.448 111.143 127.352 111.474 127.16C111.805 126.957 112.045 126.664 112.194 126.28L112.578 127.432C112.397 127.987 112.066 128.408 111.586 128.696C111.106 128.984 110.487 129.128 109.73 129.128ZM120.469 129.128C119.456 129.128 118.666 128.872 118.101 128.36C117.536 127.837 117.253 127.064 117.253 126.04V118.488H119.749V126.008C119.749 126.371 119.845 126.653 120.037 126.856C120.229 127.048 120.49 127.144 120.821 127.144C121.216 127.144 121.552 127.037 121.829 126.824L122.501 128.584C122.245 128.765 121.936 128.904 121.573 129C121.221 129.085 120.853 129.128 120.469 129.128ZM115.925 122.504V120.584H121.893V122.504H115.925ZM127.908 129.128C126.927 129.128 126.063 128.936 125.316 128.552C124.58 128.168 124.01 127.645 123.604 126.984C123.199 126.312 122.996 125.549 122.996 124.696C122.996 123.832 123.194 123.069 123.588 122.408C123.994 121.736 124.543 121.213 125.236 120.84C125.93 120.456 126.714 120.264 127.588 120.264C128.431 120.264 129.188 120.445 129.86 120.808C130.543 121.16 131.082 121.672 131.476 122.344C131.871 123.005 132.068 123.8 132.068 124.728C132.068 124.824 132.063 124.936 132.052 125.064C132.042 125.181 132.031 125.293 132.02 125.4H125.028V123.944H130.708L129.748 124.376C129.748 123.928 129.658 123.539 129.476 123.208C129.295 122.877 129.044 122.621 128.724 122.44C128.404 122.248 128.031 122.152 127.604 122.152C127.178 122.152 126.799 122.248 126.468 122.44C126.148 122.621 125.898 122.883 125.716 123.224C125.535 123.555 125.444 123.949 125.444 124.408V124.792C125.444 125.261 125.546 125.677 125.748 126.04C125.962 126.392 126.255 126.664 126.628 126.856C127.012 127.037 127.46 127.128 127.972 127.128C128.431 127.128 128.831 127.059 129.172 126.92C129.524 126.781 129.844 126.573 130.132 126.296L131.46 127.736C131.066 128.184 130.57 128.531 129.972 128.776C129.375 129.011 128.687 129.128 127.908 129.128Z" fill="#43A3F9"/>
</svg>
