<svg width="189" height="164" viewBox="0 0 189 164" fill="none" xmlns="http://www.w3.org/2000/svg">
<rect x="0.5" y="0.5" width="188" height="163" rx="17.5" stroke="#43A3F9"/>
<path d="M75.328 126.5V115.3H80.176C81.1787 115.3 82.0427 115.465 82.768 115.796C83.4933 116.116 84.0533 116.58 84.448 117.188C84.8427 117.796 85.04 118.521 85.04 119.364C85.04 120.196 84.8427 120.916 84.448 121.524C84.0533 122.132 83.4933 122.601 82.768 122.932C82.0427 123.252 81.1787 123.412 80.176 123.412H76.768L77.92 122.244V126.5H75.328ZM77.92 122.532L76.768 121.3H80.032C80.832 121.3 81.4293 121.129 81.824 120.788C82.2187 120.447 82.416 119.972 82.416 119.364C82.416 118.745 82.2187 118.265 81.824 117.924C81.4293 117.583 80.832 117.412 80.032 117.412H76.768L77.92 116.18V122.532ZM90.7949 126.628C89.8775 126.628 89.0615 126.436 88.3469 126.052C87.6429 125.668 87.0829 125.145 86.6669 124.484C86.2615 123.812 86.0589 123.049 86.0589 122.196C86.0589 121.332 86.2615 120.569 86.6669 119.908C87.0829 119.236 87.6429 118.713 88.3469 118.34C89.0615 117.956 89.8775 117.764 90.7949 117.764C91.7015 117.764 92.5122 117.956 93.2269 118.34C93.9415 118.713 94.5015 119.231 94.9069 119.892C95.3122 120.553 95.5149 121.321 95.5149 122.196C95.5149 123.049 95.3122 123.812 94.9069 124.484C94.5015 125.145 93.9415 125.668 93.2269 126.052C92.5122 126.436 91.7015 126.628 90.7949 126.628ZM90.7949 124.58C91.2109 124.58 91.5842 124.484 91.9149 124.292C92.2455 124.1 92.5069 123.828 92.6989 123.476C92.8909 123.113 92.9869 122.687 92.9869 122.196C92.9869 121.695 92.8909 121.268 92.6989 120.916C92.5069 120.564 92.2455 120.292 91.9149 120.1C91.5842 119.908 91.2109 119.812 90.7949 119.812C90.3789 119.812 90.0055 119.908 89.6749 120.1C89.3442 120.292 89.0775 120.564 88.8749 120.916C88.6829 121.268 88.5869 121.695 88.5869 122.196C88.5869 122.687 88.6829 123.113 88.8749 123.476C89.0775 123.828 89.3442 124.1 89.6749 124.292C90.0055 124.484 90.3789 124.58 90.7949 124.58ZM100.079 126.628C99.3433 126.628 98.6339 126.543 97.9513 126.372C97.2793 126.191 96.7459 125.967 96.3513 125.7L97.1833 123.908C97.5779 124.153 98.0419 124.356 98.5753 124.516C99.1193 124.665 99.6526 124.74 100.175 124.74C100.751 124.74 101.157 124.671 101.391 124.532C101.637 124.393 101.759 124.201 101.759 123.956C101.759 123.753 101.663 123.604 101.471 123.508C101.29 123.401 101.045 123.321 100.735 123.268C100.426 123.215 100.085 123.161 99.7113 123.108C99.3486 123.055 98.9806 122.985 98.6073 122.9C98.2339 122.804 97.8926 122.665 97.5833 122.484C97.2739 122.303 97.0233 122.057 96.8313 121.748C96.6499 121.439 96.5592 121.039 96.5592 120.548C96.5592 120.004 96.7139 119.524 97.0233 119.108C97.3433 118.692 97.8019 118.367 98.3993 118.132C98.9966 117.887 99.7113 117.764 100.543 117.764C101.13 117.764 101.727 117.828 102.335 117.956C102.943 118.084 103.45 118.271 103.855 118.516L103.023 120.292C102.607 120.047 102.186 119.881 101.759 119.796C101.343 119.7 100.938 119.652 100.543 119.652C99.9886 119.652 99.5833 119.727 99.3273 119.876C99.0713 120.025 98.9433 120.217 98.9433 120.452C98.9433 120.665 99.0339 120.825 99.2153 120.932C99.4073 121.039 99.6579 121.124 99.9673 121.188C100.277 121.252 100.613 121.311 100.975 121.364C101.349 121.407 101.722 121.476 102.095 121.572C102.469 121.668 102.805 121.807 103.103 121.988C103.413 122.159 103.663 122.399 103.855 122.708C104.047 123.007 104.143 123.401 104.143 123.892C104.143 124.425 103.983 124.9 103.663 125.316C103.343 125.721 102.879 126.041 102.271 126.276C101.674 126.511 100.943 126.628 100.079 126.628ZM109.203 126.628C108.19 126.628 107.401 126.372 106.835 125.86C106.27 125.337 105.987 124.564 105.987 123.54V115.988H108.483V123.508C108.483 123.871 108.579 124.153 108.771 124.356C108.963 124.548 109.225 124.644 109.555 124.644C109.95 124.644 110.286 124.537 110.563 124.324L111.235 126.084C110.979 126.265 110.67 126.404 110.307 126.5C109.955 126.585 109.587 126.628 109.203 126.628ZM104.659 120.004V118.084H110.627V120.004H104.659Z" fill="#43A3F9"/>
<path d="M106.64 50.9675C112.14 54.79 115.935 60.8675 116.705 67.88" stroke="#43A3F9" stroke-width="4.125" stroke-linecap="round" stroke-linejoin="round"/>
<path d="M69.5975 68.0175C70.3125 61.0325 74.0525 54.955 79.4975 51.105" stroke="#43A3F9" stroke-width="4.125" stroke-linecap="round" stroke-linejoin="round"/>
<path d="M82.5225 91.585C85.7125 93.2075 89.3425 94.115 93.165 94.115C96.85 94.115 100.315 93.29 103.423 91.7775" stroke="#43A3F9" stroke-width="4.125" stroke-linecap="round" stroke-linejoin="round"/>
<path d="M85.5201 47.53C85.5201 51.7375 88.9301 55.175 93.1651 55.175C97.4001 55.175 100.81 51.765 100.81 47.53C100.81 43.295 97.4001 39.885 93.1651 39.885" stroke="#43A3F9" stroke-width="4.125" stroke-linecap="round" stroke-linejoin="round"/>
<path d="M73.2825 88.78C77.5047 88.78 80.9275 85.3572 80.9275 81.135C80.9275 76.9128 77.5047 73.49 73.2825 73.49C69.0602 73.49 65.6375 76.9128 65.6375 81.135C65.6375 85.3572 69.0602 88.78 73.2825 88.78Z" stroke="#43A3F9" stroke-width="4.125" stroke-linecap="round" stroke-linejoin="round"/>
<path d="M120.335 81.135C120.335 76.9275 116.925 73.49 112.69 73.49C108.455 73.49 105.045 76.9 105.045 81.135C105.045 85.37 108.455 88.78 112.69 88.78" stroke="#43A3F9" stroke-width="4.125" stroke-linecap="round" stroke-linejoin="round"/>
</svg>
