<svg width="24" height="25" viewBox="0 0 24 25" fill="none" xmlns="http://www.w3.org/2000/svg">
<path opacity="0.34" d="M16.96 6.64658C18.96 8.03658 20.34 10.2466 20.62 12.7966" stroke="white" stroke-width="1.5" stroke-linecap="round" stroke-linejoin="round"/>
<path opacity="0.34" d="M3.48999 12.8466C3.74999 10.3066 5.10999 8.09656 7.08999 6.69656" stroke="white" stroke-width="1.5" stroke-linecap="round" stroke-linejoin="round"/>
<path opacity="0.34" d="M8.19 21.4166C9.35 22.0066 10.67 22.3366 12.06 22.3366C13.4 22.3366 14.66 22.0366 15.79 21.4866" stroke="white" stroke-width="1.5" stroke-linecap="round" stroke-linejoin="round"/>
<path d="M12.06 8.17658C13.5954 8.17658 14.84 6.93193 14.84 5.39658C14.84 3.86123 13.5954 2.61658 12.06 2.61658C10.5247 2.61658 9.28003 3.86123 9.28003 5.39658C9.28003 6.93193 10.5247 8.17658 12.06 8.17658Z" stroke="white" stroke-width="1.5" stroke-linecap="round" stroke-linejoin="round"/>
<path d="M4.82999 20.3965C6.36534 20.3965 7.60999 19.1519 7.60999 17.6165C7.60999 16.0812 6.36534 14.8365 4.82999 14.8365C3.29464 14.8365 2.04999 16.0812 2.04999 17.6165C2.04999 19.1519 3.29464 20.3965 4.82999 20.3965Z" stroke="white" stroke-width="1.5" stroke-linecap="round" stroke-linejoin="round"/>
<path d="M19.17 20.3965C20.7054 20.3965 21.95 19.1519 21.95 17.6165C21.95 16.0812 20.7054 14.8365 19.17 14.8365C17.6347 14.8365 16.39 16.0812 16.39 17.6165C16.39 19.1519 17.6347 20.3965 19.17 20.3965Z" stroke="white" stroke-width="1.5" stroke-linecap="round" stroke-linejoin="round"/>
</svg>
