<svg width="24" height="24" viewBox="0 0 24 24" fill="none" xmlns="http://www.w3.org/2000/svg">
<path d="M16.96 6.17C18.96 7.56 20.34 9.77 20.62 12.32" stroke="#43A3F9" stroke-width="1.5" stroke-linecap="round" stroke-linejoin="round"/>
<path d="M3.48999 12.37C3.74999 9.83 5.10999 7.62 7.08999 6.22" stroke="#43A3F9" stroke-width="1.5" stroke-linecap="round" stroke-linejoin="round"/>
<path d="M8.19 20.94C9.35 21.53 10.67 21.86 12.06 21.86C13.4 21.86 14.66 21.56 15.79 21.01" stroke="#43A3F9" stroke-width="1.5" stroke-linecap="round" stroke-linejoin="round"/>
<path d="M9.28 4.92C9.28 6.45 10.52 7.7 12.06 7.7C13.6 7.7 14.84 6.46 14.84 4.92C14.84 3.38 13.6 2.14 12.06 2.14" stroke="#43A3F9" stroke-width="1.5" stroke-linecap="round" stroke-linejoin="round"/>
<path d="M4.82999 19.92C6.36534 19.92 7.60999 18.6754 7.60999 17.14C7.60999 15.6046 6.36534 14.36 4.82999 14.36C3.29464 14.36 2.04999 15.6046 2.04999 17.14C2.04999 18.6754 3.29464 19.92 4.82999 19.92Z" stroke="#43A3F9" stroke-width="1.5" stroke-linecap="round" stroke-linejoin="round"/>
<path d="M21.94 17.14C21.94 15.61 20.7 14.36 19.16 14.36C17.62 14.36 16.38 15.6 16.38 17.14C16.38 18.68 17.62 19.92 19.16 19.92" stroke="#43A3F9" stroke-width="1.5" stroke-linecap="round" stroke-linejoin="round"/>
</svg>
